<svg xmlns="http://www.w3.org/2000/svg" width="567.614" height="567.614" viewBox="0 0 567.614 567.614"><g id="Gruppe_147" data-name="Gruppe 147" opacity=".234" transform="translate(-1214 -273.386)"><line id="Linie_149" x1="566" y1="320" fill="none" stroke="#4d9391" stroke-width="2" data-name="Linie 149" transform="translate(1215 520)"/><line id="Linie_150" x1="566" y1="340" fill="none" stroke="#4d9391" stroke-width="2" data-name="Linie 150" transform="translate(1215 500)"/><line id="Linie_151" x1="566" y1="360" fill="none" stroke="#4d9391" stroke-width="2" data-name="Linie 151" transform="translate(1215 480)"/><line id="Linie_152" x1="566" y1="260" fill="none" stroke="#4d9391" stroke-width="2" data-name="Linie 152" transform="translate(1215 580)"/><line id="Linie_153" x1="566" y1="280" fill="none" stroke="#4d9391" stroke-width="2" data-name="Linie 153" transform="translate(1215 560)"/><line id="Linie_154" x1="566" y1="300" fill="none" stroke="#4d9391" stroke-width="2" data-name="Linie 154" transform="translate(1215 540)"/><line id="Linie_155" x1="566" y1="200" fill="none" stroke="#4d9391" stroke-width="2" data-name="Linie 155" transform="translate(1215 640)"/><line id="Linie_156" x1="566" y1="220" fill="none" stroke="#4d9391" stroke-width="2" data-name="Linie 156" transform="translate(1215 620)"/><line id="Linie_157" x1="566" y1="240" fill="none" stroke="#4d9391" stroke-width="2" data-name="Linie 157" transform="translate(1215 600)"/><line id="Linie_158" x1="566" y1="140" fill="none" stroke="#4d9391" stroke-width="2" data-name="Linie 158" transform="translate(1215 700)"/><line id="Linie_159" x1="566" y1="160" fill="none" stroke="#4d9391" stroke-width="2" data-name="Linie 159" transform="translate(1215 680)"/><line id="Linie_160" x1="566" y1="180" fill="none" stroke="#4d9391" stroke-width="2" data-name="Linie 160" transform="translate(1215 660)"/><line id="Linie_161" x1="566" y1="120" fill="none" stroke="#4d9391" stroke-width="2" data-name="Linie 161" transform="translate(1215 720)"/><line id="Linie_162" x1="566" y1="60" fill="none" stroke="#4d9391" stroke-width="2" data-name="Linie 162" transform="translate(1215 780)"/><line id="Linie_163" x1="566" y1="80" fill="none" stroke="#4d9391" stroke-width="2" data-name="Linie 163" transform="translate(1215 760)"/><line id="Linie_164" x1="566" y1="100" fill="none" stroke="#4d9391" stroke-width="2" data-name="Linie 164" transform="translate(1215 740)"/><line id="Linie_165" x1="566" fill="none" stroke="#4d9391" stroke-width="2" data-name="Linie 165" transform="translate(1215 840)"/><line id="Linie_166" x1="566" y1="20" fill="none" stroke="#4d9391" stroke-width="2" data-name="Linie 166" transform="translate(1215 820)"/><line id="Linie_167" x1="566" y1="40" fill="none" stroke="#4d9391" stroke-width="2" data-name="Linie 167" transform="translate(1215 800)"/><line id="Linie_168" x1="566" y1="440" fill="none" stroke="#4d9391" stroke-width="2" data-name="Linie 168" transform="translate(1215 400)"/><line id="Linie_169" x1="566" y1="380" fill="none" stroke="#4d9391" stroke-width="2" data-name="Linie 169" transform="translate(1215 460)"/><line id="Linie_170" x1="566" y1="400" fill="none" stroke="#4d9391" stroke-width="2" data-name="Linie 170" transform="translate(1215 440)"/><line id="Linie_171" x1="566" y1="420" fill="none" stroke="#4d9391" stroke-width="2" data-name="Linie 171" transform="translate(1215 420)"/><line id="Linie_172" x2="566" y1="320" fill="none" stroke="#4d9391" stroke-width="2" data-name="Linie 172" transform="translate(1535 274) rotate(90)"/><line id="Linie_173" x2="566" y1="340" fill="none" stroke="#4d9391" stroke-width="2" data-name="Linie 173" transform="translate(1555 274) rotate(90)"/><line id="Linie_174" x2="566" y1="360" fill="none" stroke="#4d9391" stroke-width="2" data-name="Linie 174" transform="translate(1575 274) rotate(90)"/><line id="Linie_175" x2="566" y1="260" fill="none" stroke="#4d9391" stroke-width="2" data-name="Linie 175" transform="translate(1475 274) rotate(90)"/><line id="Linie_176" x2="566" y1="280" fill="none" stroke="#4d9391" stroke-width="2" data-name="Linie 176" transform="translate(1495 274) rotate(90)"/><line id="Linie_177" x2="566" y1="300" fill="none" stroke="#4d9391" stroke-width="2" data-name="Linie 177" transform="translate(1515 274) rotate(90)"/><line id="Linie_178" x2="566" y1="200" fill="none" stroke="#4d9391" stroke-width="2" data-name="Linie 178" transform="translate(1415 274) rotate(90)"/><line id="Linie_179" x2="566" y1="220" fill="none" stroke="#4d9391" stroke-width="2" data-name="Linie 179" transform="translate(1435 274) rotate(90)"/><line id="Linie_180" x2="566" y1="240" fill="none" stroke="#4d9391" stroke-width="2" data-name="Linie 180" transform="translate(1455 274) rotate(90)"/><line id="Linie_181" x2="566" y1="140" fill="none" stroke="#4d9391" stroke-width="2" data-name="Linie 181" transform="translate(1355 274) rotate(90)"/><line id="Linie_182" x2="566" y1="160" fill="none" stroke="#4d9391" stroke-width="2" data-name="Linie 182" transform="translate(1375 274) rotate(90)"/><line id="Linie_183" x2="566" y1="180" fill="none" stroke="#4d9391" stroke-width="2" data-name="Linie 183" transform="translate(1395 274) rotate(90)"/><line id="Linie_184" x2="566" y1="120" fill="none" stroke="#4d9391" stroke-width="2" data-name="Linie 184" transform="translate(1335 274) rotate(90)"/><line id="Linie_185" x2="566" y1="60" fill="none" stroke="#4d9391" stroke-width="2" data-name="Linie 185" transform="translate(1275 274) rotate(90)"/><line id="Linie_186" x2="566" y1="80" fill="none" stroke="#4d9391" stroke-width="2" data-name="Linie 186" transform="translate(1295 274) rotate(90)"/><line id="Linie_187" x2="566" y1="100" fill="none" stroke="#4d9391" stroke-width="2" data-name="Linie 187" transform="translate(1315 274) rotate(90)"/><line id="Linie_188" x2="566" fill="none" stroke="#4d9391" stroke-width="2" data-name="Linie 188" transform="translate(1215 274) rotate(90)"/><line id="Linie_189" x2="566" y1="20" fill="none" stroke="#4d9391" stroke-width="2" data-name="Linie 189" transform="translate(1235 274) rotate(90)"/><line id="Linie_190" x2="566" y1="40" fill="none" stroke="#4d9391" stroke-width="2" data-name="Linie 190" transform="translate(1255 274) rotate(90)"/><line id="Linie_191" x2="566" y1="440" fill="none" stroke="#4d9391" stroke-width="2" data-name="Linie 191" transform="translate(1655 274) rotate(90)"/><line id="Linie_192" x2="566" y1="380" fill="none" stroke="#4d9391" stroke-width="2" data-name="Linie 192" transform="translate(1595 274) rotate(90)"/><line id="Linie_193" x2="566" y1="400" fill="none" stroke="#4d9391" stroke-width="2" data-name="Linie 193" transform="translate(1615 274) rotate(90)"/><line id="Linie_194" x2="566" y1="420" fill="none" stroke="#4d9391" stroke-width="2" data-name="Linie 194" transform="translate(1635 274) rotate(90)"/></g></svg>