<svg xmlns="http://www.w3.org/2000/svg" width="567.614" height="567.614" viewBox="0 0 567.614 567.614">
    <g id="Gruppe_147" data-name="Gruppe 147" transform="translate(-1214 -273.386)" opacity="0.234">
        <line id="Linie_149" data-name="Linie 149" x1="566" y1="320" transform="translate(1215 520)" fill="none" stroke="#4d9391" stroke-width="2"/>
        <line id="Linie_150" data-name="Linie 150" x1="566" y1="340" transform="translate(1215 500)" fill="none" stroke="#4d9391" stroke-width="2"/>
        <line id="Linie_151" data-name="Linie 151" x1="566" y1="360" transform="translate(1215 480)" fill="none" stroke="#4d9391" stroke-width="2"/>
        <line id="Linie_152" data-name="Linie 152" x1="566" y1="260" transform="translate(1215 580)" fill="none" stroke="#4d9391" stroke-width="2"/>
        <line id="Linie_153" data-name="Linie 153" x1="566" y1="280" transform="translate(1215 560)" fill="none" stroke="#4d9391" stroke-width="2"/>
        <line id="Linie_154" data-name="Linie 154" x1="566" y1="300" transform="translate(1215 540)" fill="none" stroke="#4d9391" stroke-width="2"/>
        <line id="Linie_155" data-name="Linie 155" x1="566" y1="200" transform="translate(1215 640)" fill="none" stroke="#4d9391" stroke-width="2"/>
        <line id="Linie_156" data-name="Linie 156" x1="566" y1="220" transform="translate(1215 620)" fill="none" stroke="#4d9391" stroke-width="2"/>
        <line id="Linie_157" data-name="Linie 157" x1="566" y1="240" transform="translate(1215 600)" fill="none" stroke="#4d9391" stroke-width="2"/>
        <line id="Linie_158" data-name="Linie 158" x1="566" y1="140" transform="translate(1215 700)" fill="none" stroke="#4d9391" stroke-width="2"/>
        <line id="Linie_159" data-name="Linie 159" x1="566" y1="160" transform="translate(1215 680)" fill="none" stroke="#4d9391" stroke-width="2"/>
        <line id="Linie_160" data-name="Linie 160" x1="566" y1="180" transform="translate(1215 660)" fill="none" stroke="#4d9391" stroke-width="2"/>
        <line id="Linie_161" data-name="Linie 161" x1="566" y1="120" transform="translate(1215 720)" fill="none" stroke="#4d9391" stroke-width="2"/>
        <line id="Linie_162" data-name="Linie 162" x1="566" y1="60" transform="translate(1215 780)" fill="none" stroke="#4d9391" stroke-width="2"/>
        <line id="Linie_163" data-name="Linie 163" x1="566" y1="80" transform="translate(1215 760)" fill="none" stroke="#4d9391" stroke-width="2"/>
        <line id="Linie_164" data-name="Linie 164" x1="566" y1="100" transform="translate(1215 740)" fill="none" stroke="#4d9391" stroke-width="2"/>
        <line id="Linie_165" data-name="Linie 165" x1="566" transform="translate(1215 840)" fill="none" stroke="#4d9391" stroke-width="2"/>
        <line id="Linie_166" data-name="Linie 166" x1="566" y1="20" transform="translate(1215 820)" fill="none" stroke="#4d9391" stroke-width="2"/>
        <line id="Linie_167" data-name="Linie 167" x1="566" y1="40" transform="translate(1215 800)" fill="none" stroke="#4d9391" stroke-width="2"/>
        <line id="Linie_168" data-name="Linie 168" x1="566" y1="440" transform="translate(1215 400)" fill="none" stroke="#4d9391" stroke-width="2"/>
        <line id="Linie_169" data-name="Linie 169" x1="566" y1="380" transform="translate(1215 460)" fill="none" stroke="#4d9391" stroke-width="2"/>
        <line id="Linie_170" data-name="Linie 170" x1="566" y1="400" transform="translate(1215 440)" fill="none" stroke="#4d9391" stroke-width="2"/>
        <line id="Linie_171" data-name="Linie 171" x1="566" y1="420" transform="translate(1215 420)" fill="none" stroke="#4d9391" stroke-width="2"/>
        <line id="Linie_172" data-name="Linie 172" y1="320" x2="566" transform="translate(1535 274) rotate(90)" fill="none" stroke="#4d9391" stroke-width="2"/>
        <line id="Linie_173" data-name="Linie 173" y1="340" x2="566" transform="translate(1555 274) rotate(90)" fill="none" stroke="#4d9391" stroke-width="2"/>
        <line id="Linie_174" data-name="Linie 174" y1="360" x2="566" transform="translate(1575 274) rotate(90)" fill="none" stroke="#4d9391" stroke-width="2"/>
        <line id="Linie_175" data-name="Linie 175" y1="260" x2="566" transform="translate(1475 274) rotate(90)" fill="none" stroke="#4d9391" stroke-width="2"/>
        <line id="Linie_176" data-name="Linie 176" y1="280" x2="566" transform="translate(1495 274) rotate(90)" fill="none" stroke="#4d9391" stroke-width="2"/>
        <line id="Linie_177" data-name="Linie 177" y1="300" x2="566" transform="translate(1515 274) rotate(90)" fill="none" stroke="#4d9391" stroke-width="2"/>
        <line id="Linie_178" data-name="Linie 178" y1="200" x2="566" transform="translate(1415 274) rotate(90)" fill="none" stroke="#4d9391" stroke-width="2"/>
        <line id="Linie_179" data-name="Linie 179" y1="220" x2="566" transform="translate(1435 274) rotate(90)" fill="none" stroke="#4d9391" stroke-width="2"/>
        <line id="Linie_180" data-name="Linie 180" y1="240" x2="566" transform="translate(1455 274) rotate(90)" fill="none" stroke="#4d9391" stroke-width="2"/>
        <line id="Linie_181" data-name="Linie 181" y1="140" x2="566" transform="translate(1355 274) rotate(90)" fill="none" stroke="#4d9391" stroke-width="2"/>
        <line id="Linie_182" data-name="Linie 182" y1="160" x2="566" transform="translate(1375 274) rotate(90)" fill="none" stroke="#4d9391" stroke-width="2"/>
        <line id="Linie_183" data-name="Linie 183" y1="180" x2="566" transform="translate(1395 274) rotate(90)" fill="none" stroke="#4d9391" stroke-width="2"/>
        <line id="Linie_184" data-name="Linie 184" y1="120" x2="566" transform="translate(1335 274) rotate(90)" fill="none" stroke="#4d9391" stroke-width="2"/>
        <line id="Linie_185" data-name="Linie 185" y1="60" x2="566" transform="translate(1275 274) rotate(90)" fill="none" stroke="#4d9391" stroke-width="2"/>
        <line id="Linie_186" data-name="Linie 186" y1="80" x2="566" transform="translate(1295 274) rotate(90)" fill="none" stroke="#4d9391" stroke-width="2"/>
        <line id="Linie_187" data-name="Linie 187" y1="100" x2="566" transform="translate(1315 274) rotate(90)" fill="none" stroke="#4d9391" stroke-width="2"/>
        <line id="Linie_188" data-name="Linie 188" x2="566" transform="translate(1215 274) rotate(90)" fill="none" stroke="#4d9391" stroke-width="2"/>
        <line id="Linie_189" data-name="Linie 189" y1="20" x2="566" transform="translate(1235 274) rotate(90)" fill="none" stroke="#4d9391" stroke-width="2"/>
        <line id="Linie_190" data-name="Linie 190" y1="40" x2="566" transform="translate(1255 274) rotate(90)" fill="none" stroke="#4d9391" stroke-width="2"/>
        <line id="Linie_191" data-name="Linie 191" y1="440" x2="566" transform="translate(1655 274) rotate(90)" fill="none" stroke="#4d9391" stroke-width="2"/>
        <line id="Linie_192" data-name="Linie 192" y1="380" x2="566" transform="translate(1595 274) rotate(90)" fill="none" stroke="#4d9391" stroke-width="2"/>
        <line id="Linie_193" data-name="Linie 193" y1="400" x2="566" transform="translate(1615 274) rotate(90)" fill="none" stroke="#4d9391" stroke-width="2"/>
        <line id="Linie_194" data-name="Linie 194" y1="420" x2="566" transform="translate(1635 274) rotate(90)" fill="none" stroke="#4d9391" stroke-width="2"/>
    </g>
</svg>
