<svg xmlns="http://www.w3.org/2000/svg" xmlns:xlink="http://www.w3.org/1999/xlink" style="enable-background:new 0 0 1310 1000" width="1310" height="1000" x="0" y="0" version="1.1" viewBox="0 0 1310 1000" xml:space="preserve"><style type="text/css">.st0{display:none}.st1{display:inline}.st2,.st3{fill:#000}</style><g id="Hintergrund" class="st0"><g class="st1"><rect width="1310" height="1000" class="st2"/></g></g><g id="Viereck"><g><path d="M1130.3,586.5c0-5.9-3.8-11.2-10.7-11.2h-14.9v37h2.8v-14.8h10.8l9.1,14.8h3.2l-9.2-15 C1126.4,596.6,1130.3,592.6,1130.3,586.5L1130.3,586.5z M1127.5,586.5c0,5.3-3.7,8.5-8.7,8.5h-11.3v-16.9h12.1 C1124.9,578.1,1127.5,582,1127.5,586.5L1127.5,586.5z M1111.7,539h17.3V400h-17.3v61.6H1033V400h-17.5v77.3l17.5,0h78.6V539 L1111.7,539z M1028.9,609.6l-21.5-34.3h-4.5v37h2.8v-34.5l21.5,34.5h4.5v-37h-2.8V609.6L1028.9,609.6z M971.2,612.4h24.5v-2.8H974 v-14.4h19.6v-2.7H974v-14.3h21.7v-2.8h-24.5V612.4L971.2,612.4z M860,468.9c0-30.4,22.4-54.6,52.6-54.4 c21.8,0,38.5,12.9,46.7,31.2l16.7-4.8c-10.7-25.4-34.4-43.1-63.4-43.1c-39.1,0-70.1,31.8-70.1,71.1c0,38.9,30.8,70.9,70.1,70.9 c29.4,0,52.8-17.9,63.4-42.9l-16.9-4.6c-8.1,18.5-24.6,30.8-46.5,30.8C882,523.2,860,498.7,860,468.9L860,468.9z M815.7,596.1 h18.5v-2.7h-18.5V596.1L815.7,596.1z M799.9,539h18.3l-52.8-139h-26l-53.6,139H704l48.5-126.5l29.4,77.5h-50l9.5,15.9h45.9 L799.9,539L799.9,539z M481.9,612.4v-14.8h10.8l9.1,14.8h3.2l-9.2-15c4.9-0.7,8.9-4.8,8.9-10.9c0-5.9-3.8-11.2-10.7-11.2H479v37 H481.9L481.9,612.4z M481.9,595v-16.9h12.1c5.3,0,7.9,3.9,7.9,8.4c0,5.3-3.7,8.5-8.7,8.5H481.9L481.9,595z M466.7,575.3v22 c0,8.8-6.1,12.6-11.6,12.6c-5.5,0-11.6-3.8-11.6-12.6v-22h-2.8v22c0,10.6,7.1,15.5,14.5,15.5c7.4,0,14.5-4.9,14.5-15.5v-22H466.7 L466.7,575.3z M412.2,609.6v-14.4h19.6v-2.7h-19.6v-14.3h21.7v-2.8h-24.5v37h24.5v-2.8H412.2L412.2,609.6z M514.4,539l-39.1-54 h5.4c18.3-4.2,32.2-19.9,32.2-41.1c0-23.4-17.3-43.9-44.3-43.9H409v139h17.5V415.7H468c17.5,0,27.4,12.7,27.4,27.8 c0,17.1-12.7,28-29.4,28h-18.7l47.5,67.5H514.4L514.4,539z M515.7,609.6v-14.4h19.6v-2.7h-19.6v-14.3h21.7v-2.8h-24.5v37h24.5 v-2.8H515.7L515.7,609.6z M614.6,574.9c-10,0-17.9,8.5-17.9,18.9c0,10.4,7.7,18.9,17.9,18.9c10,0,17.8-8.5,17.8-18.9 C632.4,583.3,624.4,574.9,614.6,574.9L614.6,574.9z M614.6,577.8c8.5,0,14.9,7.3,14.9,16.1c0,8.8-6.3,16-14.9,16 c-8.7,0-15-7.3-15-16C599.7,585,606.1,577.8,614.6,577.8L614.6,577.8z M588.6,612.4v-37h-2.8v37H588.6L588.6,612.4z M651.6,522.8 h-68.3l9.5,16.3h58.8V522.8L651.6,522.8z M651.6,400h-97.5v139h17.5v-61.8h72.1v-15.7h-72.1v-45.5h80V400L651.6,400z M560.5,595.9 h14c-0.8,8-6.1,14-13.9,14c-8.7,0-14.9-7.3-14.9-16c0-8.9,6.4-16,14.9-16c6.3,0,11,3.9,13.2,9.5l2.8-0.6 c-2.6-7-8.5-11.9-16.1-11.9c-10,0-17.8,8.5-17.8,18.9c0,10.4,7.7,18.9,17.8,18.9c10.1,0,16.8-8.3,16.8-18.7v-0.8h-16.9 L560.5,595.9L560.5,595.9z M658.2,585c0-5,5.1-7.4,10.6-7.4c5.4,0,9.9,2.4,12.6,4.9v-3.4c-2.3-1.9-6.7-4.3-12.6-4.3 c-6.8,0-13.4,3.2-13.4,10.1c0,6.6,5.9,8.2,14,10.2c6.6,1.5,10.1,3.6,10.1,7.7c0,4.8-5,7.1-10.5,7.1c-5.2,0-9.6-1.6-13.5-4.8v3.4 c3.5,2.3,7.1,4.3,13.4,4.3c6.8,0,13.4-3.2,13.4-10.1c0-5.9-4.5-8.7-13-10.6C663.1,590.7,658.2,589.4,658.2,585L658.2,585z M729.5,575.3l-14.6,37h3l3.8-9.6h19.5l3.8,9.6h3l-14.3-37H729.5L729.5,575.3z M722.7,600.1l8.9-22.5l8.8,22.5H722.7L722.7,600.1z M703.2,612.4v-34.2h12.4v-2.8h-28.1v2.8h12.8v34.2H703.2L703.2,612.4z M690.3,362.1l5.2-0.7l-20.6-161.7l-410,119.9l-85.6,402.6 L751,800.3l-20.7-152.2l-5.2,0.7l19.8,145.3l-559.2-76.4l83.8-394l401.1-117.3L690.3,362.1L690.3,362.1z M769.6,575.3h-14.9v37 h2.9v-14.8h10.8l9.1,14.8h3.2l-9.2-15c4.9-0.7,8.9-4.8,8.9-10.9C780.3,580.6,776.5,575.3,769.6,575.3L769.6,575.3z M757.5,578.1 h12.1c5.3,0,7.9,3.9,7.9,8.4c0,5.3-3.7,8.5-8.7,8.5h-11.3V578.1L757.5,578.1z M813.1,575.3h-28.1v2.8h12.8v34.2h2.9v-34.2h12.4 V575.3L813.1,575.3z M845.6,575.3h-2.8v22c0,10.6,7.1,15.5,14.5,15.5c7.4,0,14.5-4.9,14.5-15.5v-22h-2.9v22 c0,8.8-6.1,12.6-11.6,12.6c-5.5,0-11.6-3.8-11.6-12.6V575.3L845.6,575.3z M896,575.3h-14.9v37h2.8v-13.8H896 c6.9-0.1,10.7-5.2,10.7-11.6C906.7,580.5,902.9,575.3,896,575.3L896,575.3z M895.9,578.1c5.4,0,8,3.9,8,8.8c0,4.9-2.6,8.9-8,8.9 h-11.9v-17.7L895.9,578.1L895.9,578.1z M929.3,593.6c0,10.4,7.7,18.9,17.9,18.9c7.5,0,13.6-4.8,16.2-11.6l-2.8-0.8 c-2.2,5.7-7.1,9.5-13.4,9.5c-8.7,0-15-7.2-15-16c0-9,6.4-16.1,15-16.1c6.3,0.1,11.2,4,13.4,9.6l2.8-0.8 c-2.7-6.8-8.9-11.6-16.2-11.6C937.2,574.7,929.3,583.1,929.3,593.6L929.3,593.6z M1015.5,539h17.5l0-43.1l-17.5,10.4V539 L1015.5,539z M1066.5,575.3h-28.1v2.8h12.8v34.2h2.9v-34.2h12.4V575.3L1066.5,575.3z M1097.6,575.3h-24.5v37h24.5v-2.8h-21.7 v-14.4h19.6v-2.7h-19.6v-14.3h21.7V575.3L1097.6,575.3z" class="st3"/></g></g></svg>