<svg xmlns="http://www.w3.org/2000/svg" xmlns:svg="http://www.w3.org/2000/svg" xmlns:xlink="http://www.w3.org/1999/xlink" id="svg2" width="1248" height="396" x="0" style="enable-background:new 0 0 1248 396" y="0" version="1.1" viewBox="0 0 1248 396" xml:space="preserve"><style type="text/css">.st0{fill:none}.st0,.st1{fill-rule:evenodd;clip-rule:evenodd}.st1,.st2{fill:#1a2d34}</style><g id="g1988" transform="matrix(1.3333333,0,0,-1.3333333,0,604.724)"><g id="g3887"><g id="g1990" transform="translate(2298.96,2.133)"><path id="path1992" d="M-1443.8,172.7c-43.6,0-79,35.5-79,79.4v87.5h157.9v-87.5 C-1364.8,208.2-1400.2,172.7-1443.8,172.7" class="st0"/></g><g id="g1994"><g><g id="g1996"><g id="g2002" transform="translate(2513.63,453.543)"><path id="path2004" d="M-1578.7-111v-88.3c0-44.3-35.7-80.2-79.8-80.2c-44,0-79.8,35.9-79.8,80.2v88.3H-1578.7z M-1581.7-199.3c0-42.6-34.4-77.2-76.8-77.2c-42.4,0-76.8,34.6-76.8,77.2v85.4h153.6V-199.3" class="st1"/></g></g></g></g><g id="g2006" transform="translate(2306.99,23.424)"><path id="path2008" d="M-1448.8,159.3c-0.7-1.3-1.7-2.3-3-3c-1.2,0.7-2.3,1.7-3,3c1.2,0.2,2.2,0.7,3,1.6 C-1451.1,160-1450,159.5-1448.8,159.3z M-1465.7,167.2c-1.4,0.3-2.7,0.9-3.8,1.9c0.3,1.4,1,2.7,1.9,3.8c0.5-1,1.3-1.9,2.4-2.3 C-1465.8,169.5-1465.9,168.4-1465.7,167.2z M-1463.4,185.7c-0.2,1.4,0.1,2.9,0.7,4.2c1.4,0.2,2.9-0.1,4.2-0.7 c-0.8-0.8-1.4-1.8-1.5-3.1C-1461.2,186.5-1462.4,186.3-1463.4,185.7z M-1445.1,189.2c1.3,0.6,2.8,0.8,4.2,0.7 c0.6-1.3,0.8-2.7,0.7-4.2c-1,0.5-2.2,0.8-3.4,0.5C-1443.7,187.4-1444.3,188.4-1445.1,189.2z M-1436.1,172.9 c1-1.1,1.6-2.4,1.9-3.8c-1.1-1-2.4-1.6-3.8-1.9c0.2,1.2,0,2.3-0.6,3.3C-1437.4,171-1436.6,171.9-1436.1,172.9z M-1451.8,170 c-2.7,0-4.9,2.2-4.9,4.9c0,2.7,2.2,4.9,4.9,4.9c2.7,0,4.9-2.2,4.9-4.9C-1446.9,172.2-1449.1,170-1451.8,170z M-1524.7,312.2h60.2 c-2.2-2.5-4.4-5-6.4-7.6c-7.6-10.1-6.8-24.3-14.5-34.2c-6.7-8.7-18.1-10.9-24.3-18.9c-7.1-9.1-7.6-21.6-14.3-30.8 c-0.5,3.3-0.7,6.8-0.7,10.2L-1524.7,312.2z M-1453.8,283.7v-52.9c0-26.7-14.2-50-35.4-62.8c-10.8,6.5-19.8,15.8-26,26.8 c3.9,4,7.6,8.1,10.6,12.9c6,9.7,6.9,22,14,31c6.6,8.4,18.1,10.7,24.3,18.9C-1460.5,265.4-1458.7,275.3-1453.8,283.7" class="st2"/></g><g id="g2010" transform="translate(2304.29,434.877)"><path id="path2012" d="M-1447.2-99.3h70.8v-81.4c0-26.7-14.2-50-35.4-62.8c-21.2,12.8-35.4,36.1-35.4,62.8V-99.3z M-1379.2-146.3c0-4.7-4.3-6.8-4.3-10.3c0-4.2,4.1-6.2,4.1-10.3c0-4.2-3.3-4.9-5.4-4.2c0,0,1.3,0.3,1.3,2c0,5-10.6,4.7-10.6,12.5 c0,4.1,2.9,7.3,2.9,9.7c0,1.2-0.9,2.9-2.5,3.5c2.2,1.5,5.8,0.6,6.8-1.8c0.8,2,1.4,4.9,0.6,7.7 C-1381.4-139.4-1379.3-142.7-1379.2-146.3L-1379.2-146.3z M-1419.8-116.7c1.1-1.9,4,0,4,0S-1419.3-113.4-1419.8-116.7z M-1402.2-220.1c0,2.5,2.4,4.6,2.7,4.8c0.1,0,0.2,0,0.4,0c1.3,0,2.4,1.1,2.4,2.4c0,0.4-0.1,0.7-0.2,1c6.5,11.7,4.8,13.4-5.3,21.7 c-2.8,2.3-3.6,8.9-3.6,15c-4,9.4-14.9,8.3-19,17.6l4.8-0.3c2.4-0.1,4.2,1.3,5,2.6c0.8,1.1,0,2.7-1.2,2.3c-0.6-1.5-2-2.7-3.7-2.6 l-11.8,0.6c-2.4-2.3-1.8-5.7,2.3-7.5v-1.8h2.8c1-3.2,1-6.1,0.1-8c-2.3,0-4.8,2.7-4.8,2.7c0,0.3,0,0.5,0,0.8 c0,1.3-1.1,2.4-2.4,2.4c-0.2,0-0.4,0-0.5-0.1c-1.3,2.1-1.1,6.7-4.6,11.8l2.6,3.2l9.6,3.2c0.3,11.3,13.2,13.9,15.2,22.1 c2.8,0,4.5,0.8,5.8,3.5c0.3,0.7,0.2,2.3-1.5,1.9c-1-2.7-2.2-3.2-4-3.2c-4.7,0-8.4,0.8-9.1-1.3c-1.1-3.5-5.9-1.3-5.9-1.3l1.2,0.9 c0.1,0,0.2,0,0.3,0c0.9,0,1.6,0.5,1.6,1.1c0,0.6-0.7,1.1-1.6,1.1c-0.9,0-1.6-0.5-1.6-1.1c0,0,0-0.1,0-0.1l-1.1-0.8 c-1.4,0-1.7,1.1-1.7,1.7c0.6,0,1,0.5,1,1.1c0,0.6-0.4,1.1-1,1.1c0,0.4,0.3,1.3,1.3,2.1l8.3,6.6c1.2,1,3.6,2.2,4.7,2.8 c-0.1,1.8,0.6,4.2,0.6,5.9c0,0,2.4-1,3.4-3.4c0.7-1.8,0.3-2.8-0.1-3.7c0.4-0.7,2.3-0.7,2.6,1.1c0.1,0.7,0.1,1.6-0.2,2.5 c3.2-0.4,7.8-1.5,14.8-0.8c-1.4-1.6-3.2-2.8-5.2-3.7c3.5-0.8,7.8-2.5,9.9-6.1c-1.7-0.9-3.5-1.4-5.3-1.8c3.3-2.9,4.6-7.3,7.5-9 c-3.7-1-6.8-0.7-9.2,0.1c1.2-2.4,3-5.1,5.4-6.4c-3.4-1.5-6.6-2.4-9.2-2.9c0.8-1.3,2-3,3.4-4c-2.6-0.1-4.7-0.8-5.9-1.4 c-0.2-3.1-1.1-9.4,6.7-17.5c10.3-7.8,12.9-13.7,4.8-24.2c0-5.3,0.9-7.4,3.6-12.9c-0.2-0.5-1.4-3.1-2.5-6.2 c-1.2-3.4-2.2-7.2-2.2-10.5c0,0-1.7,0-1.7-1.9v-2.8C-1397-221-1400.3-221-1402.2-220.1L-1402.2-220.1z M-1442.3-151.3 c-1.5,1.5-1.5,4.6-1.5,5.2c0.2,0.1,0.4,0.3,0.6,0.4c0.9,0.9,0.9,2.4,0,3.4c-0.1,0.1-0.3,0.3-0.5,0.4c1.3,4,4,6,5,11.7h4.1 l9.8-7.7c-1.7-2-3.2-4.3-3.8-7.2l-5.2,9.7c-3.3,0-5.4-2.8-3.7-6.9l-1.3-1.3l1.9-2C-1438.2-148.5-1440.2-150.5-1442.3-151.3z M-1427-196.1h13.8c0,5.7-4.2,9.4-4.2,16.1c0,4.4,1.7,7.1,6.3,8.4c1.1-1,2.2-2.3,3-4.1c0-5.8,1-9.8,2.4-12.7 c0,0-3.1-2.4-3.1-11.2c0,0-12.5,0.6-14-1.1h-2v-2.8c-3.1-1-5.9-1-8-0.1c0,2.5,2.7,4.8,2.7,4.8c0.3,0,0.5,0,0.8,0 c1.3,0,2.4,1.1,2.4,2.4C-1426.9-196.4-1427-196.3-1427-196.1L-1427-196.1z M-1457.9-248.7c-3.2,2.3-4.4,6.4-1.3,8 c0.2,0.5,0,1.2-0.5,1.5c-3.4-0.6-4.8,3.4-3.6,7.2c1.2,3.8,4.7,6.2,7.2,3.7c0.6,0,1.1,0.4,1.3,0.9c-1.6,3.1,1.8,5.7,5.8,5.7 c4,0,7.4-2.6,5.8-5.7c0.2-0.6,0.7-1,1.3-0.9c2.5,2.5,6,0.1,7.2-3.7c1.2-3.8-0.2-7.8-3.6-7.2c-0.5-0.3-0.7-1-0.5-1.5 c3.1-1.6,1.9-5.6-1.3-8c-3.2-2.3-7.5-2.2-8,1.2c-0.5,0.4-1.1,0.4-1.6,0C-1450.5-250.9-1454.7-251-1457.9-248.7L-1457.9-248.7z M-1441.4-236.6c0-4.2-3.4-7.7-7.7-7.7c-4.2,0-7.7,3.4-7.7,7.7c0,4.2,3.4,7.7,7.7,7.7C-1444.9-228.9-1441.4-232.3-1441.4-236.6" class="st1"/></g><g id="g2014" transform="translate(4.3999,440.241)"><path id="path2016" d="M-1.7-102.7h6.1l7.4-21.8h0.1l7.1,21.8h6.2v-27.5h-4.5v20.5h-0.1c-0.4-1.9-1-3.7-1.6-5.6 l-5.4-14.9H9.6l-5.3,14.9c-0.7,2-1.1,3.2-1.7,5.8H2.5v-20.7h-4.2V-102.7" class="st2"/></g><g id="g2018" transform="translate(92.559,419.34)"><path id="path2020" d="M-57.1-89.5h4.6v-19.7h-4.6V-89.5z M-57.1-82.1h4.7v-4h-4.7V-82.1z" class="st2"/></g><g id="g2022" transform="translate(118.967,419.34)"><path id="path2024" d="M-73.7-89.5h4.6v-2.7c1.3,1.3,3.6,3,7.2,3c3.5,0,5.7-2,5.7-5.9v-14.2h-4.6v13 c0,2.2-0.9,3.2-2.9,3.2c-2,0-3.7-1-5.4-2.6v-13.6h-4.6V-89.5" class="st2"/></g><g id="g2026" transform="translate(179.827,419.34)"><path id="path2028" d="M-111.9-89.5h4.6v-19.7h-4.6V-89.5z M-112-82.1h4.7v-4h-4.7V-82.1z" class="st2"/></g><g id="g2030" transform="translate(202.066,373.537)"><path id="path2032" d="M-125.9-60.7l2.5,2.8c1.5-1.3,3.7-2.3,6.2-2.3c2.5,0,3.9,0.6,3.9,2.3c0,1.6-2,2.1-4.4,2.6 c-3.4,0.8-7.4,1.7-7.4,6.2c0,3.5,3,5.8,7.3,5.8c3.8,0,6.1-1.1,8.1-2.8l-2.2-3c-1.4,1.2-3.8,2.2-5.6,2.2c-2.5,0-3.3-0.9-3.3-2 c0-1.6,2-2.1,4.3-2.6c3.4-0.7,7.5-1.6,7.5-6.2c0-4.2-3.8-6.1-8.2-6.1C-120.9-63.9-124.1-62.6-125.9-60.7" class="st2"/></g><g id="g2034" transform="translate(263.416,380.138)"><path id="path2036" d="M-164.5-64.9V-54h-3.4v3.6h3.4v6.9h4.6v-6.9h5.1V-54h-5.1v-9.8c0-2.1,0.6-3,2.9-3 c0.7,0,1.5,0.1,2,0.3V-70c-0.5-0.1-2.2-0.3-3.3-0.3C-163.4-70.3-164.5-68.4-164.5-64.9" class="st2"/></g><g id="g2038" transform="translate(332.897,397.939)"><path id="path2040" d="M-208.1-76.1c-0.3,3-1.7,4.6-4.5,4.6c-2.2,0-4.3-1.3-4.7-4.6H-208.1z M-222-78 c0,7.5,5.3,10.3,9.4,10.3c4.4,0,8.7-2.6,8.7-10.7v-1.1h-13.5c0.2-3.6,2.4-5.1,5.3-5.1c2.6,0,4,0.9,5.5,2.3l2.4-2.4 c-2-2.3-4.8-3.6-8.3-3.6C-217.4-88.3-222-85.2-222-78" class="st2"/></g><g id="g2042" transform="translate(355.495,419.34)"><path id="path2044" d="M-222.3-89.5h4.6v-3.2h0.1c1.2,2,3.3,3.6,7.1,3.6h0.3l-0.1-4.2c-0.2,0-1,0.1-1.2,0.1 c-2.9,0-4.8-1.4-6.1-3.5v-12.5h-4.6V-89.5" class="st2"/></g><g id="g2046" transform="translate(397.053,419.34)"><path id="path2048" d="M-248.5-89.5h4.6v-19.7h-4.6V-89.5z M-248.5-82.1h4.7v-4h-4.7V-82.1z" class="st2"/></g><g id="g2050" transform="translate(423.042,381.238)"><path id="path2052" d="M-264.8-65.6v14.2h4.6v-13.1c0-2.2,0.9-3.2,2.9-3.2c2,0,3.7,1,5.4,2.6v13.7h4.6v-19.7h-4.6 v2.7c-1.3-1.3-3.6-3-7.2-3C-262.6-71.5-264.8-69.5-264.8-65.6" class="st2"/></g><g id="g2054" transform="translate(484.032,419.34)"><path id="path2056" d="M-303.1-89.5h4.6v-2.7c1.5,1.7,3.8,3.1,6.8,3.1c3.3,0,4.6-1.3,5.4-3.2 c1.6,1.7,3.9,3.2,6.9,3.2c4,0,5.8-2.4,5.8-5.9v-14.2h-4.6v13c0,2.2-0.6,3.2-2.8,3.2c-1.9,0-3.3-1-5.1-2.6v-13.6h-4.6v13 c0,2.2-0.6,3.2-2.8,3.2c-1.8,0-3.3-1-5.1-2.6v-13.6h-4.6V-89.5" class="st2"/></g><g id="g2058" transform="translate(611.13,409.54)"><path id="path2060" d="M-383-83.4h-3.4v3.6h3.4v2c0,3.3,1.4,5.9,6.4,5.9c0.9,0,2.4-0.1,2.7-0.2v-3.5 c-0.3,0.1-1,0.1-1.6,0.1c-1.6,0-3-0.4-3-2.6v-1.7h4.3v-3.6h-4.3v-16.1h-4.6V-83.4" class="st2"/></g><g id="g2062" transform="translate(671.531,436.741)"><path id="path2064" d="M-421-100.5h4.2v-4.5h-4.2V-100.5z M-428.3-100.5h4.2v-4.5h-4.2V-100.5z M-431.3-121.1v14.2 h4.6V-120c0-2.2,0.9-3.2,2.9-3.2c2,0,3.7,1,5.4,2.6v13.7h4.6v-19.7h-4.6v2.7c-1.3-1.3-3.6-3-7.2-3 C-429.1-127-431.3-125-431.3-121.1" class="st2"/></g><g id="g2066" transform="translate(704.72,419.34)"><path id="path2068" d="M-441.8-89.5h4.6v-3.2h0.1c1.2,2,3.3,3.6,7.1,3.6h0.3l-0.1-4.2c-0.2,0-1,0.1-1.2,0.1 c-2.9,0-4.8-1.4-6.1-3.5v-12.5h-4.6V-89.5" class="st2"/></g><g id="g2070" transform="translate(772.018,440.241)"><path id="path2072" d="M-484.1-102.7h4.7l3.5-14.2c0.6-2.2,1.1-4.2,1.4-6.4h0.1c0.4,2.1,0.9,4.2,1.4,6.4l3.3,14.3 h4.5l3.4-14.3c0.6-2.3,1-4,1.4-6.3h0.1c0.4,2.4,0.8,3.8,1.3,6.2l3.4,14.5h4.3l-7.2-27.5h-4l-4.9,21.1h-0.1l-5.2-21.1h-4.1 L-484.1-102.7" class="st2"/></g><g id="g2074" transform="translate(870.806,419.34)"><path id="path2076" d="M-546.2-89.5h4.6v-19.7h-4.6V-89.5z M-546.2-82.1h4.7v-4h-4.7V-82.1z" class="st2"/></g><g id="g2078" transform="translate(897.214,419.34)"><path id="path2080" d="M-562.8-89.5h4.6v-3.2h0.1c1.2,2,3.3,3.6,7.1,3.6h0.3l-0.1-4.2c-0.2,0-1,0.1-1.2,0.1 c-2.9,0-4.8-1.4-6.1-3.5v-12.5h-4.6V-89.5" class="st2"/></g><g id="g2082" transform="translate(945.494,380.138)"><path id="path2084" d="M-593.2-64.9V-54h-3.4v3.6h3.4v6.9h4.6v-6.9h5.1V-54h-5.1v-9.8c0-2.1,0.6-3,2.9-3 c0.7,0,1.5,0.1,2,0.3V-70c-0.5-0.1-2.2-0.3-3.3-0.3C-592.1-70.3-593.2-68.4-593.2-64.9" class="st2"/></g><g id="g2086" transform="translate(978.873,373.537)"><path id="path2088" d="M-614.1-60.7l2.5,2.8c1.5-1.3,3.7-2.3,6.2-2.3c2.5,0,3.9,0.6,3.9,2.3c0,1.6-2,2.1-4.4,2.6 c-3.4,0.8-7.4,1.7-7.4,6.2c0,3.5,3,5.8,7.3,5.8c3.8,0,6.1-1.1,8.1-2.8l-2.2-3c-1.5,1.2-3.8,2.2-5.6,2.2c-2.5,0-3.3-0.9-3.3-2 c0-1.6,2-2.1,4.3-2.6c3.4-0.7,7.5-1.6,7.5-6.2c0-4.2-3.8-6.1-8.3-6.1C-609.1-63.9-612.3-62.6-614.1-60.7" class="st2"/></g><g id="g2090" transform="translate(1032.58,392.738)"><path id="path2092" d="M-647.9-72.8c0,7.5,5.1,10.3,9.5,10.3c4.9,0,7-2.7,8.2-5.8l-3.9-1.4c-0.8,2.2-2.2,3.3-4.4,3.3 c-2.6,0-4.8-1.7-4.8-6.4c0-4.2,1.7-6.5,4.7-6.5c2.1,0,3.5,0.6,4.6,3.4l3.8-1.4c-1.4-3.2-3.8-5.8-8.5-5.8 C-643.2-83.1-647.9-80-647.9-72.8" class="st2"/></g><g id="g2094" transform="translate(1090.17,440.241)"><path id="path2096" d="M-684.1-102.7h4.6v-10.4c1.3,1.3,3.6,3,7.2,3c3.5,0,5.7-2,5.7-5.9v-14.2h-4.6v13 c0,2.2-0.9,3.2-2.9,3.2s-3.7-1-5.3-2.6v-13.6h-4.6V-102.7" class="st2"/></g><g id="g2098" transform="translate(1181.98,381.038)"><path id="path2100" d="M-741.8-65.4v4.3c-5.5-0.7-8.4-2.1-8.4-4.2c0-1.6,1.1-2.4,2.7-2.4 C-745.1-67.7-743.2-66.8-741.8-65.4z M-754.6-66.2c0,4.3,3.6,7.1,12.9,8.2v0.6c0,2-1,2.8-3.2,2.8c-2.7,0-5-1.3-6.6-2.7l-2.2,2.9 c2.1,1.9,5.4,3.6,9.5,3.6c5.3,0,7.1-2.5,7.1-7.1v-8.1c0-2.4,0.1-3.8,0.6-4.8h-4.6c-0.3,0.8-0.4,1.4-0.4,2.5c-2-2-4.3-2.8-7.3-2.8 C-752.3-71.2-754.6-69.5-754.6-66.2" class="st2"/></g><g id="g2102" transform="translate(1211.85,409.54)"><path id="path2104" d="M-760.6-83.4h-3.4v3.6h3.4v2c0,3.3,1.4,5.9,6.4,5.9c0.9,0,2.4-0.1,2.7-0.2v-3.5 c-0.3,0.1-1,0.1-1.6,0.1c-1.6,0-3-0.4-3-2.6v-1.7h4.3v-3.6h-4.3v-16.1h-4.6V-83.4" class="st2"/></g><g id="g2106" transform="translate(1251.67,380.138)"><path id="path2108" d="M-785.6-64.9V-54h-3.4v3.6h3.4v6.9h4.6v-6.9h5.1V-54h-5.1v-9.8c0-2.1,0.6-3,2.9-3 c0.7,0,1.5,0.1,2,0.3V-70c-0.5-0.1-2.2-0.3-3.3-0.3C-784.5-70.3-785.6-68.4-785.6-64.9" class="st2"/></g><g id="g2110" transform="translate(1293.91,366.237)"><path id="path2112" d="M-812.1-56.1h-2v4.8h5.1v-4.2l-2.3-4.8h-2.1L-812.1-56.1" class="st2"/></g><path id="path2114" d="M502.1,310.1h4.7v27.5h-4.7V310.1z" class="st2"/><path id="path2118" d="M512.6,329.8h4.6v-2.7c1.3,1.3,3.6,3,7.2,3c3.5,0,5.7-2,5.7-5.9v-14.2h-4.6v13 c0,2.2-0.9,3.2-2.9,3.2s-3.7-1-5.3-2.6v-13.6h-4.6V329.8" class="st2"/><g id="g2120" transform="translate(1437.47,419.34)"><path id="path2122" d="M-902.4-89.5h4.6v-2.7c1.3,1.3,3.6,3,7.2,3c3.5,0,5.7-2,5.7-5.9v-14.2h-4.6v13 c0,2.2-0.9,3.2-2.9,3.2c-2,0-3.7-1-5.3-2.6v-13.6h-4.6V-89.5" class="st2"/></g><g id="g2124" transform="translate(1534.83,392.738)"><path id="path2126" d="M-963.5-72.8c0,3.7-1.6,6.4-5,6.4c-3.3,0-5-2.4-5-6.4c0-3.8,1.5-6.4,5-6.4 C-965.3-79.2-963.5-76.8-963.5-72.8z M-978.2-72.8c0,7.3,4.8,10.3,9.6,10.3c4.8,0,9.6-3,9.6-10.3c0-7.2-4.8-10.3-9.6-10.3 C-973.4-83.1-978.2-80-978.2-72.8" class="st2"/></g><g id="g2128" transform="translate(1550.84,419.34)"><path id="path2130" d="M-973.6-89.5h4.8l4.8-14.6h0.1l4.8,14.6h4.4l-7.1-19.8h-4.6L-973.6-89.5" class="st2"/></g><g id="g2132" transform="translate(1640.87,381.038)"><path id="path2134" d="M-1030.2-65.4v4.3c-5.5-0.7-8.4-2.1-8.4-4.2c0-1.6,1.1-2.4,2.7-2.4 C-1033.5-67.7-1031.6-66.8-1030.2-65.4z M-1043-66.2c0,4.3,3.6,7.1,12.9,8.2v0.6c0,2-1,2.8-3.2,2.8c-2.7,0-5-1.3-6.6-2.7 l-2.2,2.9c2.1,1.9,5.4,3.6,9.5,3.6c5.3,0,7.1-2.5,7.1-7.1v-8.1c0-2.4,0.1-3.8,0.6-4.8h-4.6c-0.3,0.8-0.4,1.4-0.4,2.5 c-2-2-4.3-2.8-7.3-2.8C-1040.7-71.2-1043-69.5-1043-66.2" class="st2"/></g><g id="g2136" transform="translate(1670.55,380.138)"><path id="path2138" d="M-1048.8-64.9V-54h-3.4v3.6h3.4v6.9h4.6v-6.9h5.1V-54h-5.1v-9.8c0-2.1,0.6-3,2.9-3 c0.7,0,1.5,0.1,2,0.3V-70c-0.5-0.1-2.2-0.3-3.3-0.3C-1047.8-70.3-1048.8-68.4-1048.8-64.9" class="st2"/></g><g id="g2140" transform="translate(1706.29,419.34)"><path id="path2142" d="M-1071.3-89.5h4.6v-19.7h-4.6V-89.5z M-1071.3-82.1h4.7v-4h-4.7V-82.1z" class="st2"/></g><g id="g2144" transform="translate(1769.4,392.738)"><path id="path2146" d="M-1111-72.8c0,3.7-1.6,6.4-5,6.4c-3.3,0-5-2.4-5-6.4c0-3.8,1.5-6.4,5-6.4 C-1112.7-79.2-1111-76.8-1111-72.8z M-1125.6-72.8c0,7.3,4.8,10.3,9.6,10.3c4.8,0,9.6-3,9.6-10.3c0-7.2-4.8-10.3-9.6-10.3 C-1120.8-83.1-1125.6-80-1125.6-72.8" class="st2"/></g><g id="g2148" transform="translate(1792.92,419.34)"><path id="path2150" d="M-1125.8-89.5h4.6v-2.7c1.3,1.3,3.6,3,7.2,3c3.5,0,5.7-2,5.7-5.9v-14.2h-4.6v13 c0,2.2-0.9,3.2-2.9,3.2s-3.7-1-5.3-2.6v-13.6h-4.6V-89.5" class="st2"/></g><g id="g2152" transform="translate(1859.3,366.237)"><path id="path2154" d="M-1167.5-56.1h-2v4.8h5.1v-4.2l-2.3-4.8h-2.1L-1167.5-56.1" class="st2"/></g><g id="g2156" transform="translate(26.602,257.438)"><path id="path2158" d="M-15.6,12.2c6.3,0,9.2,2.7,9.2,9.7c0,6.6-3,9.3-9.3,9.3h-3.5v-19H-15.6z M-23.9,35.6h7.8 c8.6,0,14.3-4,14.3-13.6c0-9.8-5.8-13.9-14.3-13.9h-7.8V35.6" class="st2"/></g><g id="g2160" transform="translate(76.57,299.34)"><path id="path2162" d="M-47-14.1h4.6v-19.7H-47V-14.1z M-47.1-6.7h4.7v-4h-4.7V-6.7z" class="st2"/></g><g id="g2164" transform="translate(134.2,280.939)"><path id="path2166" d="M-83.3-2.5c0,2.5-1.4,3.8-4,3.8c-2.5,0-4-1.4-4-3.8s1.5-3.7,4-3.7 C-84.7-6.2-83.3-4.9-83.3-2.5z M-81.2-17.5c0,1.4-1,1.9-5,2.2l-3.4,0.2c-0.4,0-0.8,0-1.2,0.1c-1.3-0.6-1.8-1.5-1.8-2.5 c0-1.7,2-2.3,6-2.3C-83.3-19.8-81.2-18.9-81.2-17.5z M-96.9-18.3c0,2,1.2,3.4,3.2,4.2c-1,0.5-1.5,1.3-1.5,2.4 c0,1.5,1.2,2.7,2.7,3.6c-2,1.3-3.1,3.3-3.1,5.7c0,4,3.1,7.1,8.3,7.1c2.7,0,4.7-0.9,6.1-2.1c1.3,1,3.3,1.8,4.9,1.9V0.8 c-0.9,0-2.2-0.1-3.5-0.5c0.4-0.7,0.7-1.6,0.7-2.7c0-4.1-3.1-7-8.2-7c-1.1,0-1.8,0.1-2.7,0.4c-0.6-0.3-1-0.7-1-1.3 c0-0.8,0.5-1,2.3-1.2l3.5-0.2c5.8-0.4,8.1-1.9,8.1-5.4c0-4-4.1-6-10.2-6C-94.1-23.1-96.9-21.1-96.9-18.3" class="st2"/></g><g id="g2168" transform="translate(162.198,299.34)"><path id="path2170" d="M-100.9-14.1h4.6v-19.7h-4.6V-14.1z M-100.9-6.7h4.7v-4h-4.7V-6.7z" class="st2"/></g><g id="g2172" transform="translate(192.896,260.138)"><path id="path2174" d="M-120.1,10.5v10.9h-3.4v3.6h3.4V32h4.6v-6.9h5.1v-3.6h-5.1v-9.8c0-2.1,0.6-3,2.9-3 c0.7,0,1.5,0.1,2,0.3V5.4c-0.5-0.1-2.2-0.3-3.3-0.3C-119.1,5.1-120.1,7-120.1,10.5" class="st2"/></g><g id="g2176" transform="translate(261.098,261.038)"><path id="path2178" d="M-163,10v4.3c-5.5-0.7-8.4-2.1-8.4-4.2c0-1.6,1.1-2.4,2.7-2.4C-166.3,7.7-164.5,8.6-163,10z M-175.9,9.2c0,4.3,3.6,7.1,12.9,8.2V18c0,2-1,2.8-3.2,2.8c-2.7,0-5-1.3-6.7-2.7l-2.2,2.9c2.1,1.9,5.4,3.6,9.5,3.6 c5.3,0,7.1-2.5,7.1-7.1V9.3c0-2.4,0.1-3.8,0.6-4.8h-4.6c-0.3,0.8-0.4,1.4-0.4,2.5c-2-2-4.3-2.8-7.3-2.8 C-173.5,4.2-175.9,6-175.9,9.2" class="st2"/></g><path id="path2180" d="M107.7,265.5h4.6V293h-4.6V265.5z" class="st2"/><g id="g2182" transform="translate(313.653,299.34)"><path id="path2184" d="M-196-14.1h4.6v-19.7h-4.6V-14.1z M-196.1-6.7h4.7v-4h-4.7V-6.7z" class="st2"/></g><g id="g2186" transform="translate(335.892,253.537)"><path id="path2188" d="M-210,14.7l2.5,2.8c1.5-1.3,3.7-2.3,6.2-2.3c2.5,0,3.9,0.6,3.9,2.3c0,1.6-2,2.1-4.4,2.6 c-3.4,0.8-7.4,1.7-7.4,6.2c0,3.5,3,5.8,7.3,5.8c3.8,0,6.1-1.1,8.1-2.8l-2.2-3c-1.4,1.2-3.8,2.2-5.6,2.2c-2.5,0-3.3-0.9-3.3-2 c0-1.6,2-2.1,4.3-2.6c3.4-0.7,7.5-1.6,7.5-6.2c0-4.2-3.8-6.1-8.2-6.1C-205,11.6-208.2,12.9-210,14.7" class="st2"/></g><g id="g2190" transform="translate(392.492,299.34)"><path id="path2192" d="M-245.6-14.1h4.6v-19.7h-4.6V-14.1z M-245.6-6.7h4.7v-4h-4.7V-6.7z" class="st2"/></g><g id="g2194" transform="translate(453.493,277.939)"><path id="path2196" d="M-283.9-0.6c-0.3,3-1.7,4.6-4.5,4.6c-2.2,0-4.3-1.3-4.7-4.6H-283.9z M-297.8-2.6 c0,7.5,5.3,10.3,9.4,10.3c4.4,0,8.7-2.6,8.7-10.7v-1.1h-13.5c0.2-3.6,2.4-5.1,5.3-5.1c2.6,0,4,0.9,5.5,2.3l2.4-2.4 c-2-2.3-4.8-3.6-8.3-3.6C-293.2-12.8-297.8-9.8-297.8-2.6" class="st2"/></g><g id="g2198" transform="translate(476.09,299.34)"><path id="path2200" d="M-298.1-14.1h4.6v-3.2h0.1c1.2,2,3.3,3.6,7.1,3.6h0.3l-0.1-4.2c-0.2,0-1,0.1-1.2,0.1 c-2.9,0-4.8-1.4-6.1-3.5v-12.5h-4.6V-14.1" class="st2"/></g><g id="g2202" transform="translate(517.148,261.238)"><path id="path2204" d="M-323.9,9.8V24h4.6V10.9c0-2.2,0.9-3.2,2.9-3.2c2,0,3.7,1,5.4,2.6V24h4.6V4.3h-4.6v2.7 c-1.3-1.3-3.6-3-7.2-3C-321.7,3.9-323.9,5.9-323.9,9.8" class="st2"/></g><g id="g2206" transform="translate(578.138,299.34)"><path id="path2208" d="M-362.3-14.1h4.6v-2.7c1.3,1.3,3.6,3,7.2,3c3.5,0,5.7-2,5.7-5.9v-14.2h-4.6v13 c0,2.2-0.9,3.2-2.9,3.2s-3.7-1-5.4-2.6v-13.6h-4.6V-14.1" class="st2"/></g><g id="g2210" transform="translate(669.77,280.939)"><path id="path2212" d="M-419.9-2.5c0,2.5-1.4,3.8-4,3.8c-2.5,0-4-1.4-4-3.8s1.5-3.7,4-3.7 C-421.3-6.2-419.9-4.9-419.9-2.5z M-417.8-17.5c0,1.4-1,1.9-5,2.2l-3.4,0.2c-0.4,0-0.8,0-1.2,0.1c-1.3-0.6-1.8-1.5-1.8-2.5 c0-1.7,2-2.3,6-2.3C-419.9-19.8-417.8-18.9-417.8-17.5z M-433.5-18.3c0,2,1.2,3.4,3.2,4.2c-1,0.5-1.5,1.3-1.5,2.4 c0,1.5,1.2,2.7,2.7,3.6c-2,1.3-3.1,3.3-3.1,5.7c0,4,3.1,7.1,8.3,7.1c2.7,0,4.7-0.9,6.1-2.1c1.3,1,3.3,1.8,4.9,1.9V0.8 c-0.9,0-2.2-0.1-3.5-0.5c0.4-0.7,0.7-1.6,0.7-2.7c0-4.1-3.1-7-8.2-7c-1.1,0-1.8,0.1-2.7,0.4c-0.6-0.3-1-0.7-1-1.3 c0-0.8,0.5-1,2.3-1.2l3.5-0.2c5.8-0.4,8.1-1.9,8.1-5.4c0-4-4.1-6-10.2-6C-430.7-23.1-433.5-21.1-433.5-18.3" class="st2"/></g><g id="g2214" transform="translate(726.966,261.238)"><path id="path2216" d="M-455.8,9.8V24h4.6V10.9c0-2.2,0.9-3.2,2.9-3.2c2,0,3.7,1,5.3,2.6V24h4.6V4.3h-4.6v2.7 c-1.3-1.3-3.6-3-7.2-3C-453.6,3.9-455.8,5.9-455.8,9.8" class="st2"/></g><g id="g2218" transform="translate(787.956,299.34)"><path id="path2220" d="M-494.1-14.1h4.6v-2.7c1.3,1.3,3.6,3,7.2,3c3.5,0,5.7-2,5.7-5.9v-14.2h-4.6v13 c0,2.2-0.9,3.2-2.9,3.2c-2,0-3.7-1-5.4-2.6v-13.6h-4.6V-14.1" class="st2"/></g><g id="g2222" transform="translate(884.038,262.238)"><path id="path2224" d="M-554.5,9.2v7.9c-1.2,1.6-3,2.5-4.6,2.5c-3.5,0-4.9-2.2-4.9-6.6c0-4.2,1.8-6.2,4.7-6.2 C-557.4,6.7-555.6,7.9-554.5,9.2z M-568.6,13.1c0,6.8,3.4,10.3,8.4,10.3c2.1,0,4.2-0.9,5.6-2.5v9.9h4.6V8.1 c0-2.4,0.1-3.8,0.6-4.8h-4.7c-0.3,0.6-0.4,1.7-0.4,2.7c-1.4-1.7-3.3-3-6.3-3C-565.3,3-568.6,6.2-568.6,13.1" class="st2"/></g><g id="g2226" transform="translate(941.734,320.241)"><path id="path2228" d="M-590.8-27.2h17.8v-4.3h-13.1v-6.8h9.6v-4.1h-9.6v-8h13.9v-4.2h-18.5V-27.2" class="st2"/></g><g id="g2230" transform="translate(1001.83,299.34)"><path id="path2232" d="M-628.6-14.1h4.6v-2.7c1.3,1.3,3.6,3,7.2,3c3.5,0,5.7-2,5.7-5.9v-14.2h-4.6v13 c0,2.2-0.9,3.2-2.9,3.2c-2,0-3.7-1-5.3-2.6v-13.6h-4.6V-14.1" class="st2"/></g><g id="g2234" transform="translate(1097.09,277.939)"><path id="path2236" d="M-688.4-0.6c-0.3,3-1.7,4.6-4.5,4.6c-2.2,0-4.3-1.3-4.7-4.6H-688.4z M-702.3-2.6 c0,7.5,5.3,10.3,9.4,10.3c4.4,0,8.7-2.6,8.7-10.7v-1.1h-13.5c0.2-3.6,2.4-5.1,5.3-5.1c2.6,0,4,0.9,5.5,2.3l2.4-2.4 c-2-2.3-4.8-3.6-8.3-3.6C-697.7-12.8-702.3-9.8-702.3-2.6" class="st2"/></g><g id="g2238" transform="translate(1119.69,299.34)"><path id="path2240" d="M-702.6-14.1h4.6v-3.2h0.1c1.2,2,3.3,3.6,7.1,3.6h0.3l-0.1-4.2c-0.2,0-1,0.1-1.2,0.1 c-2.9,0-4.8-1.4-6.1-3.5v-12.5h-4.6V-14.1" class="st2"/></g><g id="g2242" transform="translate(1192.46,280.939)"><path id="path2244" d="M-748.4-2.5c0,2.5-1.4,3.8-4,3.8c-2.5,0-4-1.4-4-3.8s1.5-3.7,4-3.7 C-749.9-6.2-748.4-4.9-748.4-2.5z M-746.3-17.5c0,1.4-1,1.9-5,2.2l-3.4,0.2c-0.4,0-0.8,0-1.2,0.1c-1.3-0.6-1.8-1.5-1.8-2.5 c0-1.7,2-2.3,6-2.3C-748.4-19.8-746.3-18.9-746.3-17.5z M-762-18.3c0,2,1.2,3.4,3.2,4.2c-1,0.5-1.5,1.3-1.5,2.4 c0,1.5,1.2,2.7,2.7,3.6c-2,1.3-3.1,3.3-3.1,5.7c0,4,3.1,7.1,8.3,7.1c2.7,0,4.7-0.9,6.1-2.1c1.3,1,3.3,1.8,4.9,1.9V0.8 c-0.9,0-2.2-0.1-3.5-0.5c0.4-0.7,0.7-1.6,0.7-2.7c0-4.1-3.1-7-8.2-7c-1.1,0-1.8,0.1-2.7,0.4c-0.6-0.3-1-0.7-1-1.3 c0-0.8,0.5-1,2.3-1.2l3.5-0.2c5.8-0.4,8.1-1.9,8.1-5.4c0-4-4.1-6-10.2-6C-759.3-23.1-762-21.1-762-18.3" class="st2"/></g><g id="g2246" transform="translate(1220.46,299.34)"><path id="path2248" d="M-766-14.1h4.6v-19.7h-4.6V-14.1z M-766-6.7h4.7v-4h-4.7V-6.7z" class="st2"/></g><g id="g2250" transform="translate(1281.46,277.939)"><path id="path2252" d="M-804.3-0.6c-0.3,3-1.7,4.6-4.5,4.6c-2.2,0-4.3-1.3-4.7-4.6H-804.3z M-818.2-2.6 c0,7.5,5.3,10.3,9.4,10.3c4.4,0,8.7-2.6,8.7-10.7v-1.1h-13.5c0.2-3.6,2.4-5.1,5.3-5.1c2.6,0,4,0.9,5.5,2.3l2.4-2.4 c-2-2.3-4.8-3.6-8.3-3.6C-813.6-12.8-818.2-9.8-818.2-2.6" class="st2"/></g><g id="g2254"><g><g id="g2256"><g id="g2262" transform="translate(37.902,142.238)"><path id="path2264" d="M-22.7,84.6v7.9c-1.2,1.6-3,2.5-4.6,2.5c-3.5,0-4.9-2.2-4.9-6.6c0-4.2,1.8-6.2,4.7-6.2 C-25.6,82.1-23.8,83.3-22.7,84.6z M-36.8,88.5c0,6.8,3.4,10.3,8.4,10.3c2.1,0,4.2-0.9,5.6-2.5v9.9h4.6V83.5 c0-2.4,0.1-3.8,0.6-4.8h-4.7c-0.3,0.6-0.4,1.7-0.4,2.7c-1.4-1.7-3.3-3-6.3-3C-33.5,78.4-36.8,81.7-36.8,88.5" class="st2"/></g></g></g></g><g id="g2266" transform="translate(98.501,157.939)"><path id="path2268" d="M-60.8,74.8c-0.3,3-1.7,4.6-4.5,4.6c-2.2,0-4.3-1.3-4.7-4.6H-60.8z M-74.7,72.8 c0,7.5,5.3,10.3,9.4,10.3c4.4,0,8.7-2.6,8.7-10.7v-1.1h-13.5c0.2-3.6,2.4-5.1,5.3-5.1c2.6,0,4,0.9,5.5,2.3l2.4-2.4 c-2-2.3-4.8-3.6-8.3-3.6C-70.1,62.6-74.7,65.6-74.7,72.8" class="st2"/></g><g id="g2270" transform="translate(117.499,133.537)"><path id="path2272" d="M-72.8,90.1l2.5,2.8c1.5-1.3,3.7-2.3,6.2-2.3c2.5,0,3.9,0.6,3.9,2.3c0,1.6-2,2.1-4.4,2.6 c-3.4,0.8-7.4,1.7-7.4,6.2c0,3.5,3,5.8,7.3,5.8c3.8,0,6.1-1.1,8.1-2.8l-2.2-3c-1.4,1.2-3.8,2.2-5.6,2.2c-2.5,0-3.3-0.9-3.3-2 c0-1.6,2-2.1,4.3-2.6c3.4-0.7,7.5-1.6,7.5-6.2c0-4.2-3.8-6.1-8.2-6.1C-67.7,87-71,88.3-72.8,90.1" class="st2"/></g><g id="g2274" transform="translate(205.397,200.241)"><path id="path2276" d="M-128,48.2h4.6V24.9h12.7v-4.2H-128V48.2" class="st2"/></g><g id="g2278" transform="translate(294.818,141.037)"><path id="path2280" d="M-184.2,85.4v4.3c-5.5-0.7-8.4-2.1-8.4-4.2c0-1.6,1.1-2.4,2.7-2.4 C-187.5,83.1-185.7,84-184.2,85.4z M-197.1,84.7c0,4.3,3.6,7.1,12.9,8.2v0.6c0,2-1,2.8-3.2,2.8c-2.7,0-5-1.3-6.7-2.7l-2.2,2.9 c2.1,1.9,5.4,3.6,9.5,3.6c5.3,0,7.1-2.5,7.1-7.1v-8.1c0-2.4,0.1-3.8,0.6-4.8h-4.6c-0.3,0.8-0.4,1.4-0.4,2.5c-2-2-4.3-2.8-7.3-2.8 C-194.7,79.6-197.1,81.4-197.1,84.7" class="st2"/></g><g id="g2282" transform="translate(320.434,179.34)"><path id="path2284" d="M-200.3,61.3h4.6v-2.7c1.3,1.3,3.6,3,7.2,3c3.5,0,5.7-2,5.7-5.9V41.6h-4.6v13 c0,2.2-0.9,3.2-2.9,3.2c-2,0-3.7-1-5.4-2.6V41.6h-4.6V61.3" class="st2"/></g><g id="g2286" transform="translate(416.516,142.238)"><path id="path2288" d="M-260.7,84.6v7.9c-1.2,1.6-3,2.5-4.6,2.5c-3.5,0-4.9-2.2-4.9-6.6c0-4.2,1.8-6.2,4.7-6.2 C-263.6,82.1-261.8,83.3-260.7,84.6z M-274.8,88.5c0,6.8,3.4,10.3,8.4,10.3c2.1,0,4.2-0.9,5.6-2.5v9.9h4.6V83.5 c0-2.4,0.1-3.8,0.6-4.8h-4.7c-0.3,0.6-0.4,1.7-0.4,2.7c-1.4-1.7-3.3-3-6.3-3C-271.5,78.4-274.8,81.7-274.8,88.5" class="st2"/></g><g id="g2290" transform="translate(477.115,157.939)"><path id="path2292" d="M-298.8,74.8c-0.3,3-1.7,4.6-4.5,4.6c-2.2,0-4.3-1.3-4.7-4.6H-298.8z M-312.6,72.8 c0,7.5,5.3,10.3,9.4,10.3c4.4,0,8.7-2.6,8.7-10.7v-1.1h-13.5c0.2-3.6,2.4-5.1,5.3-5.1c2.6,0,4,0.9,5.5,2.3l2.4-2.4 c-2-2.3-4.8-3.6-8.3-3.6C-308.1,62.6-312.6,65.6-312.6,72.8" class="st2"/></g><g id="g2294" transform="translate(496.113,133.537)"><path id="path2296" d="M-310.7,90.1l2.5,2.8c1.5-1.3,3.7-2.3,6.2-2.3c2.5,0,3.9,0.6,3.9,2.3c0,1.6-2,2.1-4.4,2.6 c-3.4,0.8-7.4,1.7-7.4,6.2c0,3.5,3,5.8,7.3,5.8c3.8,0,6.1-1.1,8.1-2.8l-2.2-3c-1.4,1.2-3.8,2.2-5.6,2.2c-2.5,0-3.3-0.9-3.3-2 c0-1.6,2-2.1,4.3-2.6c3.4-0.7,7.5-1.6,7.5-6.2c0-4.2-3.8-6.1-8.2-6.1C-305.7,87-308.9,88.3-310.7,90.1" class="st2"/></g><g id="g2298" transform="translate(584.011,200.241)"><path id="path2300" d="M-366,48.2h4.7l13-19.6h0.1v19.6h4.3V20.7h-4.2l-13.5,20h-0.1v-20h-4.3V48.2" class="st2"/></g><g id="g2302" transform="translate(695.521,152.738)"><path id="path2304" d="M-436,78c0,3.7-1.6,6.4-5,6.4c-3.3,0-5-2.4-5-6.4c0-3.8,1.5-6.4,5-6.4 C-437.8,71.6-436,74-436,78z M-450.7,78c0,7.3,4.8,10.3,9.6,10.3c4.8,0,9.6-3,9.6-10.3c0-7.2-4.8-10.3-9.6-10.3 C-445.9,67.8-450.7,70.8-450.7,78" class="st2"/></g><g id="g2306" transform="translate(719.048,179.34)"><path id="path2308" d="M-450.8,61.3h4.6v-3.2h0.1c1.2,2,3.3,3.6,7.1,3.6h0.3l-0.1-4.2c-0.2,0-1,0.1-1.2,0.1 c-2.9,0-4.8-1.4-6.1-3.5V41.6h-4.6V61.3" class="st2"/></g><g id="g2310" transform="translate(795.269,142.238)"><path id="path2312" d="M-498.7,84.6v7.9c-1.2,1.6-3,2.5-4.6,2.5c-3.5,0-4.9-2.2-4.9-6.6c0-4.2,1.8-6.2,4.7-6.2 C-501.6,82.1-499.8,83.3-498.7,84.6z M-512.8,88.5c0,6.8,3.4,10.3,8.4,10.3c2.1,0,4.2-0.9,5.6-2.5v9.9h4.6V83.5 c0-2.4,0.1-3.8,0.6-4.8h-4.7c-0.3,0.6-0.4,1.7-0.4,2.7c-1.4-1.7-3.3-3-6.3-3C-509.5,78.4-512.8,81.7-512.8,88.5" class="st2"/></g><g id="g2314" transform="translate(821.676,179.34)"><path id="path2316" d="M-515.3,61.3h4.6v-3.2h0.1c1.2,2,3.3,3.6,7.1,3.6h0.3l-0.1-4.2c-0.2,0-1,0.1-1.2,0.1 c-2.9,0-4.8-1.4-6.1-3.5V41.6h-4.6V61.3" class="st2"/></g><g id="g2318" transform="translate(863.005,200.241)"><path id="path2320" d="M-541.3,48.2h4.6V37.7c1.3,1.3,3.6,3,7.2,3c3.5,0,5.7-2,5.7-5.9V20.7h-4.6v13 c0,2.2-0.9,3.2-2.9,3.2c-2,0-3.7-1-5.4-2.6V20.7h-4.6V48.2" class="st2"/></g><g id="g2322" transform="translate(958.267,157.939)"><path id="path2324" d="M-601.2,74.8c-0.3,3-1.7,4.6-4.5,4.6c-2.2,0-4.3-1.3-4.7-4.6H-601.2z M-615,72.8 c0,7.5,5.3,10.3,9.4,10.3c4.4,0,8.7-2.6,8.7-10.7v-1.1h-13.5c0.2-3.6,2.4-5.1,5.3-5.1c2.6,0,4,0.9,5.5,2.3l2.4-2.4 c-2-2.3-4.8-3.6-8.3-3.6C-610.5,62.6-615,65.6-615,72.8" class="st2"/></g><g id="g2326" transform="translate(980.974,179.34)"><path id="path2328" d="M-615.4,61.3h4.6V41.6h-4.6V61.3z M-615.5,68.7h4.7v-4h-4.7V68.7z" class="st2"/></g><g id="g2330" transform="translate(1007.38,179.34)"><path id="path2332" d="M-632,61.3h4.6v-2.7c1.3,1.3,3.6,3,7.2,3c3.5,0,5.7-2,5.7-5.9V41.6h-4.6v13 c0,2.2-0.9,3.2-2.9,3.2s-3.7-1-5.3-2.6V41.6h-4.6V61.3" class="st2"/></g><path id="path2334" d="M397.4,231h9.2v3.3h-9.2V231z" class="st2"/><g id="g2336" transform="translate(1095.88,200.241)"><path id="path2338" d="M-687.7,48.2h4.7l3.5-14.2c0.6-2.2,1.1-4.2,1.4-6.4h0.1c0.4,2.1,0.9,4.2,1.4,6.4l3.3,14.3h4.5 l3.4-14.3c0.6-2.3,1-4,1.4-6.3h0.1c0.4,2.4,0.8,3.8,1.3,6.2l3.4,14.5h4.3l-7.2-27.5h-4.1l-4.9,21.1h-0.1l-5.2-21.1h-4.1 L-687.7,48.2" class="st2"/></g><g id="g2340" transform="translate(1224.63,157.939)"><path id="path2342" d="M-768.6,74.8c-0.3,3-1.7,4.6-4.5,4.6c-2.2,0-4.3-1.3-4.7-4.6H-768.6z M-782.4,72.8 c0,7.5,5.3,10.3,9.4,10.3c4.4,0,8.7-2.6,8.7-10.7v-1.1h-13.5c0.2-3.6,2.4-5.1,5.3-5.1c2.6,0,4,0.9,5.5,2.3l2.4-2.4 c-2-2.3-4.8-3.6-8.3-3.6C-777.9,62.6-782.4,65.6-782.4,72.8" class="st2"/></g><g id="g2344" transform="translate(1243.63,133.537)"><path id="path2346" d="M-780.5,90.1l2.5,2.8c1.5-1.3,3.7-2.3,6.2-2.3c2.5,0,3.9,0.6,3.9,2.3c0,1.6-2,2.1-4.4,2.6 c-3.4,0.8-7.4,1.7-7.4,6.2c0,3.5,3,5.8,7.3,5.8c3.8,0,6.1-1.1,8.1-2.8l-2.2-3c-1.4,1.2-3.8,2.2-5.6,2.2c-2.5,0-3.3-0.9-3.3-2 c0-1.6,2-2.1,4.3-2.6c3.4-0.7,7.5-1.6,7.5-6.2c0-4.2-3.8-6.1-8.2-6.1C-775.5,87-778.7,88.3-780.5,90.1" class="st2"/></g><g id="g2348" transform="translate(1304.98,140.138)"><path id="path2350" d="M-819.1,86v10.9h-3.4v3.6h3.4v6.9h4.6v-6.9h5.1v-3.6h-5.1v-9.8c0-2.1,0.6-3,2.9-3 c0.7,0,1.5,0.1,2,0.3v-3.6c-0.5-0.1-2.2-0.3-3.3-0.3C-818,80.5-819.1,82.4-819.1,86" class="st2"/></g><g id="g2352" transform="translate(1347.62,169.539)"><path id="path2354" d="M-845.9,67.5h-3.4v3.6h3.4v2c0,3.3,1.4,5.9,6.4,5.9c0.9,0,2.4-0.1,2.7-0.2v-3.5 c-0.3,0.1-1,0.1-1.6,0.1c-1.6,0-3-0.4-3-2.6v-1.7h4.3v-3.6h-4.3V51.4h-4.6V67.5" class="st2"/></g><g id="g2356" transform="translate(1412.46,141.037)"><path id="path2358" d="M-886.6,85.4v4.3c-5.5-0.7-8.4-2.1-8.4-4.2c0-1.6,1.1-2.4,2.7-2.4 C-889.9,83.1-888.1,84-886.6,85.4z M-899.5,84.7c0,4.3,3.6,7.1,12.9,8.2v0.6c0,2-1,2.8-3.2,2.8c-2.7,0-5-1.3-6.6-2.7l-2.2,2.9 c2.1,1.9,5.4,3.6,9.5,3.6c5.3,0,7.1-2.5,7.1-7.1v-8.1c0-2.4,0.1-3.8,0.6-4.8h-4.6c-0.3,0.8-0.4,1.4-0.4,2.5c-2-2-4.3-2.8-7.3-2.8 C-897.1,79.6-899.5,81.4-899.5,84.7" class="st2"/></g><path id="path2360" d="M535.5,220.9h4.6v27.5h-4.6V220.9z" class="st2"/><g id="g2362" transform="translate(1499.45,157.939)"><path id="path2364" d="M-941.3,74.8c-0.3,3-1.7,4.6-4.5,4.6c-2.2,0-4.3-1.3-4.7-4.6H-941.3z M-955.2,72.8 c0,7.5,5.3,10.3,9.4,10.3c4.4,0,8.7-2.6,8.7-10.7v-1.1h-13.5c0.2-3.6,2.4-5.1,5.3-5.1c2.6,0,4,0.9,5.5,2.3l2.4-2.4 c-2-2.3-4.8-3.6-8.3-3.6C-950.6,62.6-955.2,65.6-955.2,72.8" class="st2"/></g><g id="g2366" transform="translate(1522.05,179.34)"><path id="path2368" d="M-955.5,61.3h4.6v-2.7c1.3,1.3,3.6,3,7.2,3c3.5,0,5.7-2,5.7-5.9V41.6h-4.6v13 c0,2.2-0.9,3.2-2.9,3.2s-3.7-1-5.3-2.6V41.6h-4.6V61.3" class="st2"/></g></g></g></svg>