<svg xmlns="http://www.w3.org/2000/svg" width="70" height="70" viewBox="0 0 70 70"><circle id="Ellipse_14" cx="35" cy="35" r="35" fill="#4d9391" data-name="Ellipse 14"/><path id="arrow-right-solid" fill="#fff" d="M12.755,39.608l1.486-1.486a1.6,1.6,0,0,1,2.27,0l13.016,13.01a1.6,1.6,0,0,1,0,2.27L16.512,66.418a1.6,1.6,0,0,1-2.27,0l-1.486-1.486a1.609,1.609,0,0,1,.027-2.3l8.068-7.687H1.607A1.6,1.6,0,0,1,0,53.341V51.2a1.6,1.6,0,0,1,1.607-1.607H20.85l-8.068-7.687A1.6,1.6,0,0,1,12.755,39.608Z" transform="translate(50 87.27) rotate(180)"/></svg>