<svg xmlns="http://www.w3.org/2000/svg" xmlns:xlink="http://www.w3.org/1999/xlink" width="70" height="70" viewBox="0 0 70 70">
    <defs>
        <clipPath id="clip-path">
            <rect x="2" width="26" height="29.24" fill="none"/>
        </clipPath>
    </defs>
    <circle id="Ellipse_15" data-name="Ellipse 15" cx="35" cy="35" r="35" fill="#4d9391"/>
    <g id="Bildlaufgruppe_1" data-name="Bildlaufgruppe 1" transform="translate(20 20.38)" clip-path="url(#clip-path)" style="isolation: isolate">
        <path id="arrow-right-solid" d="M12.755,39.608l1.486-1.486a1.6,1.6,0,0,1,2.27,0l13.016,13.01a1.6,1.6,0,0,1,0,2.27L16.512,66.418a1.6,1.6,0,0,1-2.27,0l-1.486-1.486a1.609,1.609,0,0,1,.027-2.3l8.068-7.687H1.607A1.6,1.6,0,0,1,0,53.341V51.2a1.6,1.6,0,0,1,1.607-1.607H20.85l-8.068-7.687A1.6,1.6,0,0,1,12.755,39.608Z" transform="translate(0 -37.65)" fill="#fff"/>
    </g>
</svg>
